<svg xmlns="http://www.w3.org/2000/svg" width="55.54" height="46.131" viewBox="0 0 55.54 46.131">
  <g id="forward" transform="translate(0 -41.674)">
    <g id="Group_14" data-name="Group 14" transform="translate(0 41.674)">
      <path id="Path_28" data-name="Path 28" d="M3.122,69.095l-.087-.019H40.2L28.517,80.785a3.068,3.068,0,0,0,0,4.314l1.818,1.819a3.041,3.041,0,0,0,4.292,0L54.654,66.894a3.062,3.062,0,0,0,0-4.307L34.627,42.559a3.044,3.044,0,0,0-4.292,0l-1.818,1.819a3.008,3.008,0,0,0-.886,2.146,2.918,2.918,0,0,0,.886,2.106L40.332,60.4H3.08A3.148,3.148,0,0,0,0,63.52v2.572A3.087,3.087,0,0,0,3.122,69.095Z" transform="translate(0 -41.674)"/>
    </g>
  </g>
</svg>
