<svg id="brands-and-logotypes_1_" data-name="brands-and-logotypes (1)" xmlns="http://www.w3.org/2000/svg" width="51" height="51" viewBox="0 0 51 51">
  <path id="Path_32" data-name="Path 32" d="M11.953,115.733a13.464,13.464,0,0,1,1.906-6.921v-8.6h-8.6a25.513,25.513,0,0,0,0,31.035h8.6v-8.6A13.464,13.464,0,0,1,11.953,115.733Z" transform="translate(0 -90.233)" fill="#fbbd00"/>
  <path id="Path_33" data-name="Path 33" d="M201.977,374.857,196,380.834l5.977,5.977a25.307,25.307,0,0,0,15.518-5.262v-8.588h-8.588A13.545,13.545,0,0,1,201.977,374.857Z" transform="translate(-176.477 -335.811)" fill="#0f9d58"/>
  <path id="Path_34" data-name="Path 34" d="M61.42,325.477l-8.6,8.6a25.908,25.908,0,0,0,2.207,2.514,25.333,25.333,0,0,0,18.031,7.469V332.1A13.552,13.552,0,0,1,61.42,325.477Z" transform="translate(-47.561 -293.056)" fill="#31aa52"/>
  <path id="Path_35" data-name="Path 35" d="M281.5,203.169a25.725,25.725,0,0,0-.418-4.62l-.224-1.225H256v11.953h12.1a13.486,13.486,0,0,1-5.168,5.542l8.588,8.588a25.909,25.909,0,0,0,2.514-2.207A25.333,25.333,0,0,0,281.5,203.169Z" transform="translate(-230.5 -177.669)" fill="#3c79e6"/>
  <path id="Path_36" data-name="Path 36" d="M211.556,15.921l1.056,1.056,8.452-8.452-1.056-1.056A25.333,25.333,0,0,0,201.977,0L196,5.977l5.977,5.977A13.458,13.458,0,0,1,211.556,15.921Z" transform="translate(-176.477 0)" fill="#cf2d48"/>
  <path id="Path_37" data-name="Path 37" d="M73.06,11.953V0A25.334,25.334,0,0,0,55.029,7.469a25.882,25.882,0,0,0-2.207,2.514l8.6,8.6A13.553,13.553,0,0,1,73.06,11.953Z" transform="translate(-47.56 0)" fill="#eb4132"/>
</svg>
