<svg id="question" xmlns="http://www.w3.org/2000/svg" width="50" height="50" viewBox="0 0 50 50">
  <g id="Group_16" data-name="Group 16">
    <g id="Group_15" data-name="Group 15">
      <circle id="Ellipse_1" data-name="Ellipse 1" cx="2.441" cy="2.441" r="2.441" transform="translate(22.559 34.521)"/>
      <path id="Path_29" data-name="Path 29" d="M25,0A25,25,0,1,0,50,25,24.986,24.986,0,0,0,25,0Zm0,46.094A21.094,21.094,0,1,1,46.094,25,21.082,21.082,0,0,1,25,46.094Z"/>
      <path id="Path_30" data-name="Path 30" d="M183.813,128.5A7.821,7.821,0,0,0,176,136.313a1.953,1.953,0,0,0,3.906,0,3.906,3.906,0,1,1,3.906,3.906,1.953,1.953,0,0,0-1.953,1.953v4.883a1.953,1.953,0,0,0,3.906,0v-3.177a7.813,7.813,0,0,0-1.953-15.378Z" transform="translate(-158.813 -115.951)"/>
    </g>
  </g>
</svg>
