<svg id="sydney-opera-house" xmlns="http://www.w3.org/2000/svg" width="60" height="57.029" viewBox="0 0 60 57.029">
  <g id="Group_2" data-name="Group 2">
    <path id="Path_1" data-name="Path 1" d="M58.992,38.012l-5.069-4.618V18.08a1.765,1.765,0,0,0-1.764-1.764h-12.2a1.765,1.765,0,0,0-1.764,1.764v.981l-6.121-5.578a3.063,3.063,0,0,0-4.145,0L1.008,38.013A3.077,3.077,0,0,0,3.08,43.363h4.3V67.94A1.765,1.765,0,0,0,9.144,69.7H23.9a1.765,1.765,0,0,0,1.764-1.764V53.018h8.672V67.94A1.765,1.765,0,0,0,36.1,69.7H50.855A1.764,1.764,0,0,0,52.62,67.94V43.364h4.3a3.077,3.077,0,0,0,2.072-5.351Zm-8.137,1.822A1.765,1.765,0,0,0,49.091,41.6V66.176H37.865V51.253A1.765,1.765,0,0,0,36.1,49.489H23.9a1.765,1.765,0,0,0-1.764,1.764V66.176H10.909V41.6a1.765,1.765,0,0,0-1.764-1.764h-4.9L30,16.369l8.77,7.991a1.764,1.764,0,0,0,2.953-1.3V19.844h8.672V34.173a1.764,1.764,0,0,0,.576,1.3l4.782,4.357Z" transform="translate(0 -12.676)"/>
  </g>
</svg>
