<svg xmlns="http://www.w3.org/2000/svg" width="201.972" height="220.333" viewBox="0 0 201.972 220.333">
  <g id="speaker" transform="translate(-21.333)">
    <g id="Group_6" data-name="Group 6" transform="translate(21.333)">
      <g id="Group_5" data-name="Group 5">
        <path id="Path_14" data-name="Path 14" d="M213.465,64.264a32.132,32.132,0,1,0-32.132-32.132A32.171,32.171,0,0,0,213.465,64.264Zm0-55.083a22.951,22.951,0,1,1-22.951,22.952A22.975,22.975,0,0,1,213.465,9.18Z" transform="translate(-112.479)"/>
        <path id="Path_15" data-name="Path 15" d="M204.992,180.116c.043-3.051.1-5.994.176-8.724.477-18.763.653-31.6-10.9-44.837a13.6,13.6,0,0,0,1.5-6.118,13.771,13.771,0,1,0-13.771,13.771,13.64,13.64,0,0,0,5.691-1.266c8.9,10.485,8.757,20.744,8.3,38.213-.073,2.8-.135,5.824-.178,8.957h-9.227v-8.217a27.556,27.556,0,0,0-14.919-24.547c-11.556-5.993-29.5-13.139-49.346-13.139s-37.789,7.145-49.346,13.139a27.556,27.556,0,0,0-14.919,24.547v8.217H49.223c-.043-3.133-.1-6.156-.178-8.957-.453-17.468-.6-27.728,8.3-38.213a13.639,13.639,0,0,0,5.691,1.266,13.771,13.771,0,1,0-13.771-13.771,13.6,13.6,0,0,0,1.5,6.118c-11.556,13.24-11.38,26.074-10.9,44.837.072,2.729.134,5.671.176,8.719h-.347a18.382,18.382,0,0,0-18.361,18.361v18.361a18.382,18.382,0,0,0,18.361,18.361h.828l8.443,42.214a4.587,4.587,0,0,0,4.491,3.689,4.392,4.392,0,0,0,.905-.09,4.583,4.583,0,0,0,3.6-5.4l-8.082-40.411H194.755l-8.082,40.411a4.583,4.583,0,0,0,3.6,5.4,4.366,4.366,0,0,0,.905.09,4.587,4.587,0,0,0,4.492-3.689l8.442-42.214h.828a18.382,18.382,0,0,0,18.361-18.361V198.472A18.379,18.379,0,0,0,204.992,180.116Zm-23-55.089a4.59,4.59,0,1,1,4.59-4.59A4.6,4.6,0,0,1,181.993,125.028ZM63.04,115.847a4.59,4.59,0,1,1-4.59,4.59A4.6,4.6,0,0,1,63.04,115.847Zm4.2,56.047a18.4,18.4,0,0,1,9.97-16.4c10.642-5.523,27.12-12.108,45.114-12.108s34.472,6.585,45.114,12.108a18.4,18.4,0,0,1,9.97,16.4v8.217H67.236Zm146.889,44.939a9.19,9.19,0,0,1-9.18,9.18H39.694a9.189,9.189,0,0,1-9.18-9.18V198.472a9.19,9.19,0,0,1,9.18-9.18h165.25a9.189,9.189,0,0,1,9.18,9.18Z" transform="translate(-21.333 -60.764)"/>
      </g>
    </g>
  </g>
</svg>
