<svg xmlns="http://www.w3.org/2000/svg" width="60.333" height="53.029" viewBox="0 0 60.333 53.029">
  <g id="book" transform="translate(0 -30.992)">
    <path id="Path_13" data-name="Path 13" d="M58.566,34.527h-5.3V32.76A1.768,1.768,0,0,0,51.5,30.992H37.237a8.83,8.83,0,0,0-7.07,3.541,8.83,8.83,0,0,0-7.07-3.541H8.838A1.768,1.768,0,0,0,7.07,32.76v1.768h-5.3A1.768,1.768,0,0,0,0,36.295V75.182a1.768,1.768,0,0,0,1.768,1.768H39.122v5.3A1.769,1.769,0,0,0,42.14,83.5l2.285-2.285L46.711,83.5a1.769,1.769,0,0,0,3.017-1.25v-5.3h8.838a1.768,1.768,0,0,0,1.768-1.768V36.295A1.768,1.768,0,0,0,58.566,34.527Zm-21.329,0H49.728V66.344H37.237a8.784,8.784,0,0,0-5.3,1.8V39.83A5.309,5.309,0,0,1,37.237,34.527Zm-26.632,0H23.1a5.309,5.309,0,0,1,5.3,5.3V68.142a8.784,8.784,0,0,0-5.3-1.8H10.605ZM3.535,73.414V38.062H7.07V68.111a1.768,1.768,0,0,0,1.768,1.768H23.1a5.244,5.244,0,0,1,4.562,2.657,1.768,1.768,0,0,0,1.528.878Zm27.612,0a1.768,1.768,0,0,0,1.528-.878,5.244,5.244,0,0,1,4.562-2.657h1.885v3.535Zm15.045,4.571-.518-.518a1.768,1.768,0,0,0-2.5,0l-.518.518V69.879h3.535ZM56.8,73.414h-7.07V69.879H51.5a1.768,1.768,0,0,0,1.768-1.768V38.062H56.8Z" transform="translate(0)" fill="#e30613"/>
  </g>
</svg>
