<svg xmlns="http://www.w3.org/2000/svg" width="63" height="47.988" viewBox="0 0 63 47.988">
  <g id="email" transform="translate(0 -61)">
    <g id="Group_4" data-name="Group 4" transform="translate(0 61)">
      <path id="Path_12" data-name="Path 12" d="M57.463,61H5.537A5.547,5.547,0,0,0,0,66.537v36.914a5.546,5.546,0,0,0,5.537,5.537H57.463A5.546,5.546,0,0,0,63,103.451V66.537A5.546,5.546,0,0,0,57.463,61ZM56.7,64.691,31.617,89.772,6.32,64.691Zm-53.007,38v-35.4L21.469,84.909ZM6.3,105.3,24.09,87.508l6.233,6.18a1.846,1.846,0,0,0,2.6-.006L39.006,87.6,56.7,105.3Zm53.007-2.61L41.616,84.994,59.309,67.3Z" transform="translate(0 -61)" fill="#e30613"/>
    </g>
  </g>
</svg>
